<svg width="484" height="59" fill="none" xmlns="http://www.w3.org/2000/svg"><path d="M50 29.36c0 4.293-.68 8.2-2.04 11.72-1.36 3.52-3.28 6.533-5.76 9.04-2.48 2.507-5.467 4.453-8.96 5.84C29.773 57.32 25.933 58 21.72 58H.32V.68h21.4c4.213 0 8.053.693 11.52 2.08 3.493 1.36 6.48 3.307 8.96 5.84 2.48 2.507 4.4 5.52 5.76 9.04C49.32 21.16 50 25.067 50 29.36zm-7.96 0c0-3.52-.48-6.667-1.44-9.44-.96-2.773-2.32-5.12-4.08-7.04-1.76-1.92-3.893-3.387-6.4-4.4-2.507-1.013-5.307-1.52-8.4-1.52H8.08v44.76h13.64c3.093 0 5.893-.507 8.4-1.52 2.507-1.013 4.64-2.467 6.4-4.36 1.76-1.92 3.12-4.267 4.08-7.04.96-2.773 1.44-5.92 1.44-9.44zM112.139 58h-7.76V.68h7.76V58zM216.601.68L193.241 58h-6.96L162.921.68h6.2c.694 0 1.254.173 1.68.52.427.347.747.787.96 1.32l16.16 40.44c.347.907.68 1.893 1 2.96a38.13 38.13 0 01.92 3.36 78.48 78.48 0 01.84-3.36c.294-1.067.614-2.053.96-2.96l16.12-40.44c.16-.453.467-.867.92-1.24.48-.4 1.054-.6 1.72-.6h6.2zM275.102 58h-7.76V.68h7.76V58zM379.404.68V58h-3.88c-.614 0-1.134-.107-1.56-.32-.4-.213-.8-.573-1.2-1.08l-33.16-43.2c.053.667.093 1.32.12 1.96.026.64.04 1.24.04 1.8V58h-6.8V.68h4c.346 0 .64.027.88.08.24.027.453.093.64.2.186.08.373.213.56.4.186.16.386.373.6.64l33.16 43.16c-.054-.693-.107-1.36-.16-2a46.559 46.559 0 01-.04-1.88V.68h6.8zm104.414 29.76v22c-2.88 2.08-5.96 3.64-9.24 4.68-3.254 1.013-6.827 1.52-10.72 1.52-4.614 0-8.774-.707-12.48-2.12-3.707-1.44-6.88-3.44-9.52-6-2.614-2.587-4.627-5.68-6.041-9.28-1.413-3.6-2.119-7.56-2.119-11.88 0-4.373.68-8.36 2.04-11.96 1.386-3.6 3.346-6.68 5.88-9.24 2.533-2.587 5.613-4.587 9.24-6 3.626-1.413 7.68-2.12 12.16-2.12 2.266 0 4.373.173 6.32.52 1.946.32 3.746.8 5.4 1.44a23.879 23.879 0 014.6 2.28c1.413.88 2.733 1.88 3.96 3l-2.2 3.52c-.347.533-.8.88-1.36 1.04-.534.133-1.134 0-1.8-.4a57.953 57.953 0 01-2.2-1.36c-.827-.533-1.84-1.04-3.04-1.52-1.174-.507-2.574-.933-4.2-1.28-1.6-.347-3.507-.52-5.72-.52-3.227 0-6.147.533-8.76 1.6-2.614 1.04-4.84 2.547-6.68 4.52-1.84 1.947-3.254 4.32-4.24 7.12-.987 2.773-1.48 5.893-1.48 9.36 0 3.6.506 6.827 1.52 9.68 1.04 2.827 2.506 5.24 4.4 7.24 1.92 1.973 4.24 3.48 6.96 4.52 2.72 1.04 5.773 1.56 9.16 1.56 2.666 0 5.026-.293 7.08-.88a31.511 31.511 0 006.08-2.52v-12.6h-8.92c-.507 0-.92-.147-1.24-.44a1.466 1.466 0 01-.44-1.08v-4.4h17.6z" fill="#fff"/></svg>